HIERARCHY
ROOT Hips
{
	OFFSET -0.001795 -0.223333 0.028219
	CHANNELS 6 Xposition Yposition Zposition Zrotation Yrotation Xrotation 
	JOINT LeftUpLeg
	{
		OFFSET 0.069520 -0.091406 -0.006815
		CHANNELS 3 Zrotation Yrotation Xrotation
		JOINT LeftLeg
		{
			OFFSET 0.034277 -0.375199 -0.004496
			CHANNELS 3 Zrotation Yrotation Xrotation
			JOINT LeftFoot
			{
				OFFSET -0.013596 -0.397961 -0.043693
				CHANNELS 3 Zrotation Yrotation Xrotation
				JOINT LeftToe
				{
					OFFSET 0.026358 -0.055791 0.119288
					CHANNELS 3 Zrotation Yrotation Xrotation
					End Site
					{
						OFFSET 0.000000 0.000000 0.000000
					}
				}
			}
		}
	}
	JOINT RightUpLeg
	{
		OFFSET -0.067670 -0.090522 -0.004320
		CHANNELS 3 Zrotation Yrotation Xrotation
		JOINT RightLeg
		{
			OFFSET -0.038290 -0.382569 -0.008850
			CHANNELS 3 Zrotation Yrotation Xrotation
			JOINT RightFoot
			{
				OFFSET 0.015774 -0.398415 -0.042312
				CHANNELS 3 Zrotation Yrotation Xrotation
				JOINT RightToe
				{
					OFFSET -0.025372 -0.048144 0.123348
					CHANNELS 3 Zrotation Yrotation Xrotation
					End Site
					{
						OFFSET 0.000000 0.000000 0.000000
					}
				}
			}
		}
	}
	JOINT Spine
	{
		OFFSET -0.002533 0.108963 -0.026696
		CHANNELS 3 Zrotation Yrotation Xrotation
		JOINT Spine1
		{
			OFFSET 0.005487 0.135180 0.001092
			CHANNELS 3 Zrotation Yrotation Xrotation
			JOINT Spine2
			{
				OFFSET 0.001457 0.052922 0.025425
				CHANNELS 3 Zrotation Yrotation Xrotation
				JOINT Neck
				{
					OFFSET -0.002778 0.213870 -0.042857
					CHANNELS 3 Zrotation Yrotation Xrotation
					JOINT Head
					{
						OFFSET 0.005152 0.064970 0.051349
						CHANNELS 3 Zrotation Yrotation Xrotation
						End Site
						{
							OFFSET 0.000000 0.000000 0.000000
						}
					}
				}
				JOINT LeftShoulder
				{
					OFFSET 0.078845 0.121749 -0.034090
					CHANNELS 3 Zrotation Yrotation Xrotation
					JOINT LeftArm
					{
						OFFSET 0.090977 0.030469 -0.008868
						CHANNELS 3 Zrotation Yrotation Xrotation
						JOINT LeftForeArm
						{
							OFFSET 0.259612 -0.012772 -0.027456
							CHANNELS 3 Zrotation Yrotation Xrotation
							JOINT LeftHand
							{
								OFFSET 0.249234 0.008986 -0.001171
								CHANNELS 3 Zrotation Yrotation Xrotation
								End Site
								{
									OFFSET 0.000000 0.000000 0.000000
								}
							}
						}
					}
				}
				JOINT RightShoulder
				{
					OFFSET -0.081759 0.118833 -0.038615
					CHANNELS 3 Zrotation Yrotation Xrotation
					JOINT RightArm
					{
						OFFSET -0.096012 0.032551 -0.009143
						CHANNELS 3 Zrotation Yrotation Xrotation
						JOINT RightForeArm
						{
							OFFSET -0.253742 -0.013329 -0.021401
							CHANNELS 3 Zrotation Yrotation Xrotation
							JOINT RightHand
							{
								OFFSET -0.255298 0.007772 -0.005559
								CHANNELS 3 Zrotation Yrotation Xrotation
								End Site
								{
									OFFSET 0.000000 0.000000 0.000000
								}
							}
						}
					}
				}
			}
		}
	}
}
MOTION
Frames: 17
Frame Time: 0.050000
0.000000 0.914725 0.000000 2.891474 -0.286114 -0.372886 8.105101 -0.326237 -11.749487 -6.500829 1.027991 12.587052 4.109198 10.096522 6.181175 0.000000 0.000000 0.000000 -13.932786 -0.049145 -17.064058 7.285926 -1.309948 22.475359 -5.096375 -12.916840 1.141478 0.000000 0.000000 0.000000 8.393792 -4.056740 34.683647 -4.072581 1.700942 -16.797663 -1.371213 4.396803 23.350361 16.263824 -10.541004 -14.297300 0.000000 0.000000 0.000000 -9.981127 -33.363311 13.479967 -34.368391 -29.647364 2.544809 -10.109469 -59.041471 7.846176 0.000000 0.000000 0.000000 20.368764 24.227556 13.490214 37.808717 42.660581 7.627906 -8.913883 40.932271 -1.221332 0.000000 0.000000 0.000000 
-0.000486 0.911620 0.000285 3.233952 0.209645 0.045861 7.970507 -0.364675 -11.958071 -6.206219 0.952019 12.957931 2.793132 7.323207 4.629881 0.000000 0.000000 0.000000 -14.695694 -0.182939 -17.666564 8.290596 -1.702919 23.614152 -5.797630 -14.593201 1.380337 0.000000 0.000000 0.000000 7.713407 -3.978718 35.311880 -2.623920 1.258548 -17.751516 -1.540548 5.827753 22.841411 16.902499 -10.766105 -14.333096 0.000000 0.000000 0.000000 -12.049164 -32.392737 13.224344 -35.042116 -28.849387 2.482199 -17.705580 -58.533622 11.843082 0.000000 0.000000 0.000000 20.612780 22.644197 13.138768 39.100925 42.585354 8.004783 -9.181313 42.469778 -1.219927 0.000000 0.000000 0.000000 
-0.000735 0.910013 0.000539 3.626380 0.554080 -0.855764 8.045927 -0.337172 -11.415269 -6.469646 1.021158 13.915773 3.102249 7.598727 3.497667 0.000000 0.000000 0.000000 -14.847724 -0.235449 -16.952935 7.580503 -1.509559 24.092122 -6.208602 -15.543971 1.590390 0.000000 0.000000 0.000000 8.245310 -4.233720 35.917531 -2.954036 1.375472 -17.549800 -2.177317 4.508994 21.921439 16.500937 -10.971674 -13.099538 0.000000 0.000000 0.000000 -12.772456 -31.952891 13.354266 -34.486724 -28.230477 2.290313 -17.261140 -58.651906 11.745684 0.000000 0.000000 0.000000 21.761651 23.436948 13.518269 35.922826 41.334313 6.632687 -5.707196 40.303619 -0.158708 0.000000 0.000000 0.000000 
-0.000814 0.909463 0.000501 3.990178 0.314667 -1.545930 8.124507 -0.289681 -10.466421 -6.317037 0.992485 13.713571 2.312097 6.035348 3.395871 0.000000 0.000000 0.000000 -15.236957 -0.290000 -16.921530 7.331323 -1.430738 25.286273 -5.902464 -14.926861 2.311353 0.000000 0.000000 0.000000 8.333675 -4.381723 37.356269 -3.120205 1.425059 -17.296331 -2.748758 4.909120 21.534852 17.030210 -10.922650 -14.247395 0.000000 0.000000 0.000000 -9.920161 -32.260367 12.750878 -37.018307 -27.722956 2.484884 -16.835160 -61.564638 12.131309 0.000000 0.000000 0.000000 20.974805 22.940391 13.089995 36.650351 42.303794 7.266313 -7.551338 38.169031 -0.764167 0.000000 0.000000 0.000000 
-0.000837 0.908111 0.000420 4.414867 0.588538 -1.837596 7.505618 -0.336868 -10.280083 -5.996418 0.908284 13.719150 2.364430 6.019393 3.007556 0.000000 0.000000 0.000000 -15.647234 -0.377232 -17.033728 7.063999 -1.369047 25.709736 -6.209091 -15.663570 2.839727 0.000000 0.000000 0.000000 8.855485 -4.571978 37.298357 -3.918627 1.678707 -17.457631 -3.018110 4.166410 21.655755 16.623660 -10.406360 -15.139228 0.000000 0.000000 0.000000 -10.104699 -32.456916 12.965919 -38.193619 -27.264402 2.500837 -16.740736 -63.317124 12.642977 0.000000 0.000000 0.000000 20.671509 22.968651 12.834609 35.850694 42.025489 6.970746 -6.647763 35.657372 -0.529422 0.000000 0.000000 0.000000 
-0.000861 0.907847 -0.000164 4.517333 0.551679 -1.922273 7.640153 -0.318965 -10.112051 -6.098947 0.925054 13.242192 1.978695 5.424562 3.484750 0.000000 0.000000 0.000000 -15.712476 -0.386811 -17.063658 6.880273 -1.300570 25.725598 -6.110639 -15.457651 2.948227 0.000000 0.000000 0.000000 8.933268 -4.651589 37.789910 -3.820469 1.646954 -17.756162 -3.162875 4.747617 21.885760 16.451530 -9.909396 -16.175515 0.000000 0.000000 0.000000 -11.030012 -33.161932 13.391400 -38.581362 -27.289145 2.570770 -18.224918 -64.885721 13.918345 0.000000 0.000000 0.000000 19.978642 22.941867 12.797704 34.917190 41.920085 6.660073 -7.786119 33.555762 -0.837505 0.000000 0.000000 0.000000 
-0.000941 0.907609 -0.001267 4.677609 1.192737 -1.812913 7.323099 -0.380574 -10.797254 -5.888189 0.855116 13.422260 1.845590 5.161699 3.404894 0.000000 0.000000 0.000000 -15.930633 -0.467169 -17.198445 6.795201 -1.339782 26.133106 -5.952652 -15.063537 2.694699 0.000000 0.000000 0.000000 9.289120 -4.900276 37.999426 -3.924871 1.689877 -17.817671 -3.528233 4.271251 21.696044 16.444181 -9.713459 -16.828920 0.000000 0.000000 0.000000 -11.558434 -32.843394 13.400054 -39.714853 -27.129593 2.674633 -20.086897 -67.156152 15.878693 0.000000 0.000000 0.000000 19.348883 22.964112 12.617697 34.207996 42.036367 6.522828 -7.641608 31.466911 -0.782458 0.000000 0.000000 0.000000 
-0.001272 0.907837 -0.002690 4.690682 1.296751 -1.749667 7.445638 -0.379558 -11.014641 -5.948245 0.862970 13.282445 1.571825 4.629562 3.392967 0.000000 0.000000 0.000000 -15.950688 -0.485565 -17.427225 6.701651 -1.330151 26.658760 -5.758504 -14.627050 2.687833 0.000000 0.000000 0.000000 9.373040 -5.041083 38.649533 -3.987041 1.707168 -18.061701 -3.757928 4.425285 21.714997 16.196275 -9.490041 -16.890751 0.000000 0.000000 0.000000 -12.271721 -32.921981 13.563430 -40.260597 -26.935336 2.686627 -21.553384 -69.955010 17.776788 0.000000 0.000000 0.000000 18.527669 22.720111 12.343519 34.331881 42.588677 6.752027 -8.108065 29.980395 -0.860883 0.000000 0.000000 0.000000 
-0.001786 0.907787 -0.004083 4.673318 1.389553 -1.711894 7.434302 -0.394108 -11.387111 -5.677083 0.796792 13.188490 1.480532 4.532620 3.605866 0.000000 0.000000 0.000000 -15.789524 -0.486757 -17.846672 6.637228 -1.324534 26.970414 -5.455705 -13.917005 2.491777 0.000000 0.000000 0.000000 9.025583 -5.002342 39.153500 -3.750169 1.640010 -18.012273 -4.171925 4.512790 21.654384 15.560056 -8.985410 -16.947943 0.000000 0.000000 0.000000 -12.199910 -32.581231 13.359046 -40.923435 -26.879063 2.743692 -21.795096 -72.675647 18.860417 0.000000 0.000000 0.000000 17.945531 22.977602 12.377191 33.683319 43.617390 6.903449 -8.589716 28.588892 -0.949071 0.000000 0.000000 0.000000 
-0.002528 0.907881 -0.005294 4.626065 1.009666 -1.401019 7.550079 -0.389301 -11.694299 -5.525696 0.772002 12.870323 1.843971 5.181361 3.487839 0.000000 0.000000 0.000000 -15.608820 -0.443934 -18.443038 6.435619 -1.222534 27.131687 -5.220911 -13.440422 2.748437 0.000000 0.000000 0.000000 8.716780 -4.896240 39.531221 -4.014133 1.704567 -18.233862 -4.211751 4.713890 21.550947 14.690522 -8.426299 -16.603860 0.000000 0.000000 0.000000 -12.461909 -32.423921 13.351188 -41.063191 -26.402635 2.608526 -22.624679 -75.428373 20.477704 0.000000 0.000000 0.000000 17.187503 23.010855 12.220934 34.058545 44.270682 7.270039 -8.863280 28.139174 -0.995591 0.000000 0.000000 0.000000 
-0.003324 0.907564 -0.006297 4.422343 1.077686 -1.436651 7.821198 -0.375186 -12.088693 -5.396455 0.746501 13.429719 1.957496 5.398247 3.470837 0.000000 0.000000 0.000000 -15.411598 -0.423344 -18.479009 6.707415 -1.331328 27.273853 -5.207545 -13.384035 2.600349 0.000000 0.000000 0.000000 8.129215 -4.772105 40.115433 -4.217696 1.759722 -18.563387 -4.339178 4.824933 21.816060 14.343138 -8.157857 -16.665722 0.000000 0.000000 0.000000 -12.258548 -32.421245 13.275098 -40.855847 -26.373454 2.554630 -20.151152 -77.918099 19.332622 0.000000 0.000000 0.000000 16.435142 23.065994 12.104716 35.127022 45.307316 7.981295 -9.349343 27.954566 -1.084111 0.000000 0.000000 0.000000 
-0.004177 0.907574 -0.007170 4.076903 0.832800 -1.656158 8.386572 -0.313334 -12.288620 -5.418881 0.764161 13.746415 2.359150 6.141907 3.395299 0.000000 0.000000 0.000000 -15.137514 -0.369002 -18.382794 6.889791 -1.367445 27.021369 -5.002242 -13.024932 3.193555 0.000000 0.000000 0.000000 7.686992 -4.707396 41.218893 -4.651192 1.877798 -18.999812 -4.458342 4.938096 21.864377 13.671591 -7.841397 -16.056851 0.000000 0.000000 0.000000 -12.181014 -32.442806 13.255927 -40.113032 -26.338862 2.455001 -18.016621 -79.359283 17.996169 0.000000 0.000000 0.000000 16.350125 22.972708 12.017514 35.880310 46.314033 8.602300 -9.212119 28.319526 -1.065230 0.000000 0.000000 0.000000 
-0.004722 0.907712 -0.007974 3.653597 0.581295 -1.322751 8.974599 -0.265955 -13.011393 -5.155196 0.717374 14.355390 2.445744 6.463657 3.913361 0.000000 0.000000 0.000000 -14.765896 -0.303492 -18.948939 7.485773 -1.556880 26.834412 -5.069823 -13.246486 3.551049 0.000000 0.000000 0.000000 6.892684 -4.444303 41.738705 -4.569184 1.837567 -19.338795 -4.666892 5.535443 21.913161 13.727265 -7.765270 -16.237176 0.000000 0.000000 0.000000 -11.680759 -32.656744 13.163775 -39.304541 -26.215317 2.319837 -13.355049 -80.472458 14.190822 0.000000 0.000000 0.000000 16.538326 22.629272 12.023367 37.140651 47.173561 9.357511 -9.524467 29.809316 -1.156490 0.000000 0.000000 0.000000 
-0.004679 0.908242 -0.008586 3.208123 0.500516 -1.194687 9.556160 -0.210000 -13.503532 -5.086931 0.710399 15.100319 2.747231 6.989110 3.751992 0.000000 0.000000 0.000000 -14.349701 -0.235242 -19.059641 7.792302 -1.650779 26.474033 -5.175608 -13.543333 3.929255 0.000000 0.000000 0.000000 6.418629 -4.362929 42.621757 -4.982296 1.936773 -19.968234 -4.783153 5.511917 21.879422 12.989172 -7.550038 -15.034156 0.000000 0.000000 0.000000 -12.077654 -32.665263 13.269681 -37.876357 -25.837438 2.058763 -12.616881 -80.595937 13.547831 0.000000 0.000000 0.000000 17.412104 22.467124 12.152099 38.514458 47.704284 10.025638 -9.238009 31.253938 -1.112183 0.000000 0.000000 0.000000 
-0.003437 0.908607 -0.008956 2.856573 0.563371 -0.795518 10.106245 -0.165809 -14.155615 -5.037549 0.698848 15.564026 2.759669 7.236163 4.498984 0.000000 0.000000 0.000000 -14.183148 -0.213353 -19.488527 8.310185 -1.821546 25.881918 -5.342645 -13.990343 4.480998 0.000000 0.000000 0.000000 5.904325 -4.246546 43.157519 -5.102276 1.960661 -20.322314 -4.899329 5.907166 22.120629 12.870595 -7.362554 -15.267339 0.000000 0.000000 0.000000 -12.646804 -33.341516 13.652529 -36.454472 -26.083155 1.987394 -11.060134 -79.682361 11.896942 0.000000 0.000000 0.000000 18.392087 22.723590 12.668537 38.980861 48.370523 10.388846 -9.320216 32.084614 -1.133204 0.000000 0.000000 0.000000 
-0.000426 0.909275 -0.009182 2.503325 0.558152 -0.255678 10.333456 -0.156021 -15.046869 -5.001256 0.694672 16.123498 3.145655 8.011264 4.673669 0.000000 0.000000 0.000000 -13.893998 -0.151039 -19.452845 8.593653 -1.884064 24.871700 -5.693673 -14.777767 4.684195 0.000000 0.000000 0.000000 5.656186 -4.233844 43.745002 -5.621782 2.089603 -20.528779 -4.970102 5.919538 22.054467 12.591465 -7.176960 -15.129306 0.000000 0.000000 0.000000 -13.005581 -34.110043 14.126033 -34.603836 -25.970608 1.782906 -7.477414 -79.113166 8.764803 0.000000 0.000000 0.000000 18.794756 22.787097 12.842810 39.927987 48.999509 10.987112 -8.897914 33.338973 -1.031638 0.000000 0.000000 0.000000 
0.004684 0.909199 -0.009281 2.254563 0.770940 0.016515 10.747775 -0.122293 -15.855837 -5.078626 0.709450 16.669255 3.093518 8.073410 5.214191 0.000000 0.000000 0.000000 -14.195106 -0.206162 -19.541624 9.236087 -2.106640 24.514148 -6.066617 -15.612109 5.127360 0.000000 0.000000 0.000000 5.131707 -4.153961 44.571390 -5.808258 2.142941 -20.555347 -4.863402 6.143011 22.173324 12.943558 -7.099212 -16.340094 0.000000 0.000000 0.000000 -13.062662 -34.956327 14.502072 -33.406164 -27.067363 1.938705 -3.522497 -78.199266 5.333071 0.000000 0.000000 0.000000 19.118454 22.903440 13.081459 40.353518 49.876448 11.487213 -8.882307 33.671612 -1.014460 0.000000 0.000000 0.000000 
